<?xml version="1.0" encoding="utf-8"?>
<!-- Generator: Adobe Illustrator 21.1.0, SVG Export Plug-In . SVG Version: 6.00 Build 0)  -->
<svg version="1.1" id="Layer_1" focusable="false" xmlns="http://www.w3.org/2000/svg" xmlns:xlink="http://www.w3.org/1999/xlink"
	 x="0px" y="0px" viewBox="0 0 22.1 21.9" style="enable-background:new 0 0 22.1 21.9;" xml:space="preserve">
<style type="text/css">
	.st0{fill:#3CB878;}
</style>
<path class="st0" d="M18.5,20.4H3.6c-1.1,0-2-0.9-2-2V3.5c0-1.1,0.9-2,2-2h14.9c1.1,0,2,0.9,2,2v14.9C20.6,19.5,19.7,20.4,18.5,20.4
	z M9.8,16.3l7.8-7.8c0.3-0.3,0.3-0.7,0-1l-1-1c-0.3-0.3-0.7-0.3-1,0l-6.4,6.4l-3-3c-0.3-0.3-0.7-0.3-1,0l-1,1c-0.3,0.3-0.3,0.7,0,1
	l4.4,4.4C9.2,16.5,9.6,16.5,9.8,16.3L9.8,16.3z"/>
</svg>
