<?xml version="1.0" encoding="utf-8"?>
<!-- Generator: Adobe Illustrator 21.1.0, SVG Export Plug-In . SVG Version: 6.00 Build 0)  -->
<svg version="1.1" id="Layer_1" focusable="false" xmlns="http://www.w3.org/2000/svg" xmlns:xlink="http://www.w3.org/1999/xlink"
	 x="0px" y="0px" viewBox="0 0 26 230" style="enable-background:new 0 0 26 230;" xml:space="preserve">
<style type="text/css">
	.st0{fill:#848484;}
</style>
<path class="st0" d="M3.9,202.8c1.4,0,2.6-1.2,2.6-2.6s-1.2-2.6-2.6-2.6s-2.6,1.2-2.6,2.6S2.5,202.8,3.9,202.8z M22.1,202.8
	c1.4,0,2.6-1.2,2.6-2.6s-1.2-2.6-2.6-2.6c-1.4,0-2.6,1.2-2.6,2.6S20.7,202.8,22.1,202.8z M23.4,204.1h-2.6c-0.7,0-1.4,0.3-1.8,0.8
	c1.6,0.9,2.8,2.5,3.1,4.4h2.7c0.7,0,1.3-0.6,1.3-1.3v-1.3C26,205.3,24.8,204.1,23.4,204.1z M13,204.1c2.5,0,4.5-2,4.5-4.6
	c0-2.5-2-4.6-4.5-4.6s-4.6,2-4.6,4.6C8.4,202.1,10.5,204.1,13,204.1z M16.1,205.4h-0.3c-0.8,0.4-1.8,0.7-2.8,0.7s-1.9-0.2-2.8-0.7
	H9.9c-2.6,0-4.7,2.1-4.7,4.7v1.2c0,1.1,0.9,1.9,2,1.9h11.7c1.1,0,1.9-0.9,1.9-1.9v-1.2C20.8,207.5,18.7,205.4,16.1,205.4z M7,204.9
	c-0.5-0.5-1.1-0.8-1.8-0.8H2.6c-1.4,0-2.6,1.2-2.6,2.6v1.3c0,0.7,0.6,1.3,1.3,1.3H4C4.2,207.4,5.4,205.8,7,204.9L7,204.9z"/>
<path class="st0" d="M1.4,18.7c0,0.8,0.6,1.4,1.4,1.4h17.3c0.8,0,1.4-0.6,1.4-1.4V5.8H1.4V18.7z M8.6,9.2c0-0.3,0.2-0.5,0.5-0.5h4.7
	c0.3,0,0.5,0.2,0.5,0.5v0.4c0,0.3-0.2,0.5-0.5,0.5H9.2c-0.3,0-0.5-0.2-0.5-0.5V9.2z M21.6,0H1.4C0.6,0,0,0.6,0,1.4v2.2
	C0,4,0.3,4.3,0.7,4.3h21.6C22.7,4.3,23,4,23,3.6V1.4C23,0.6,22.4,0,21.6,0z"/>
<path class="st0" d="M21.8,47.9c0.2-0.4,0.3-0.9,0.3-1.4c0-2.2-1.7-3.9-3.9-3.9c-0.8,0-1.5,0.2-2.2,0.7c-1.1-2-3.2-3.3-5.6-3.3
	c-3.6,0-6.5,2.9-6.5,6.5c0,0.1,0,0.2,0,0.3c-2.3,0.8-3.9,3-3.9,5.5c0,3.2,2.6,5.9,5.8,5.9h14.9c2.9,0,5.2-2.3,5.2-5.2
	C26,50.5,24.2,48.4,21.8,47.9z M16,50.4h-2.7V55c0,0.4-0.3,0.6-0.6,0.6h-1.9c-0.4,0-0.7-0.3-0.7-0.6v-4.5H7.4
	c-0.6,0-0.9-0.7-0.5-1.1l4.3-4.3c0.3-0.3,0.7-0.3,0.9,0l4.3,4.3C16.9,49.7,16.6,50.4,16,50.4L16,50.4z"/>
<path class="st0" d="M23.5,85.9c0.2-0.1,0.5,0,0.5,0.2v9.6c0,1.2-1,2.3-2.3,2.3H2.3C1,98,0,97,0,95.8v-9.6c0-0.2,0.3-0.4,0.5-0.2
	c1,0.8,2.4,1.9,7.2,5.3c1,0.7,2.7,2.2,4.3,2.2c1.7,0,3.4-1.5,4.3-2.2C21.1,87.8,22.5,86.8,23.5,85.9z M12,92c1.1,0,2.7-1.4,3.4-1.9
	c6.2-4.5,6.7-4.9,8.1-6c0.3-0.2,0.4-0.5,0.4-0.9v-0.9c0-1.2-1-2.3-2.3-2.3H2.3C1,80,0,81,0,82.3v0.9c0,0.3,0.2,0.7,0.4,0.9
	c1.4,1.1,1.9,1.5,8.1,6C9.3,90.6,10.9,92,12,92L12,92z"/>
<path class="st0" d="M12,139c6.6,0,12-5.4,12-12c0-6.6-5.4-12-12-12s-12,5.4-12,12C0,133.6,5.4,139,12,139z M7,135.3l2.6-2.6
	c1.5,0.7,3.3,0.7,4.8,0l2.6,2.6C13.9,137.1,10.1,137.1,7,135.3L7,135.3z M15.9,127c0,2.1-1.7,3.9-3.9,3.9s-3.9-1.7-3.9-3.9
	c0-2.1,1.7-3.9,3.9-3.9S15.9,124.9,15.9,127z M20.3,132l-2.6-2.6c0.7-1.5,0.7-3.3,0-4.8l2.6-2.6C22.1,125.1,22.1,128.9,20.3,132z
	 M17,118.7l-2.6,2.6c-1.5-0.7-3.3-0.7-4.8,0L7,118.7C10.1,116.9,13.9,116.9,17,118.7z M3.7,122l2.6,2.6c-0.7,1.5-0.7,3.3,0,4.8
	L3.7,132C1.9,128.9,1.9,125.1,3.7,122z"/>
<path class="st0" d="M10.7,155.1l-9.3,3.5c-0.8,0.3-1.4,1.1-1.4,2v10.1c0,0.8,0.5,1.6,1.2,1.9l9.3,4.7c0.6,0.3,1.3,0.3,1.9,0
	l9.3-4.7c0.7-0.4,1.2-1.1,1.2-1.9v-10.1c0-0.9-0.6-1.7-1.4-2l-9.3-3.5C11.8,155,11.2,155,10.7,155.1z M11.5,157.9l8.6,3.2v0
	l-8.6,3.5l-8.6-3.5v0C2.9,161.2,11.5,157.9,11.5,157.9z M12.9,173.9v-6.7l7.2-2.9v6L12.9,173.9z"/>
</svg>
