<?xml version="1.0" encoding="utf-8"?>
<!-- Generator: Adobe Illustrator 21.1.0, SVG Export Plug-In . SVG Version: 6.00 Build 0)  -->
<svg version="1.1" id="Layer_1" xmlns="http://www.w3.org/2000/svg" xmlns:xlink="http://www.w3.org/1999/xlink" x="0px" y="0px"
	 viewBox="0 0 27 27" style="enable-background:new 0 0 27 27;" xml:space="preserve">
<style type="text/css">
	.st0{fill:#169CB4;}
</style>
<g>
	<g>
		<g>
			<path class="st0" d="M23.5,27c-1.9,0-3.5-1.6-3.5-3.5v-15C20,7.7,19.3,7,18.5,7h-15C1.6,7,0,5.4,0,3.5S1.6,0,3.5,0h15
				C23.2,0,27,3.8,27,8.5v15C27,25.4,25.4,27,23.5,27z"/>
		</g>
	</g>
	<g>
		<path class="st0" d="M9.5,27C7.6,27,6,25.4,6,23.5V21H3.5C1.6,21,0,19.4,0,17.5S1.6,14,3.5,14h6c1.9,0,3.5,1.6,3.5,3.5v6
			C13,25.4,11.4,27,9.5,27z"/>
	</g>
</g>
</svg>
