<?xml version="1.0" encoding="utf-8"?>
<!-- Generator: Adobe Illustrator 21.1.0, SVG Export Plug-In . SVG Version: 6.00 Build 0)  -->
<svg version="1.1" id="Layer_1" xmlns="http://www.w3.org/2000/svg" xmlns:xlink="http://www.w3.org/1999/xlink" x="0px" y="0px"
	 viewBox="0 0 102 79" style="enable-background:new 0 0 102 79;" xml:space="preserve">
<style type="text/css">
	.st0{fill:#FFFFFF;}
</style>
<g>
	<path class="st0" d="M2,78h38.8V21H2V78z M22.2,75.1c-1,0-1.9-0.8-1.9-1.8c0-1,0.8-1.8,1.9-1.8c1,0,1.9,0.8,1.9,1.8
		C24.1,74.3,23.3,75.1,22.2,75.1z M7.6,26.5h27.6l0,42.1H7.6V26.5z M21.2,7.4h62.2v24.7h5.5V2H15.7v16.5h5.5V7.4z M43.3,43.9h28.8
		v5.4H43.3V43.9z M74.9,34.2v42.9H101V34.2H74.9z M88.6,35.9c0.3,0,0.6,0.3,0.6,0.6c0,0.3-0.3,0.6-0.6,0.6c-0.3,0-0.6-0.3-0.6-0.6
		C87.9,36.2,88.2,35.9,88.6,35.9z M84.8,38h7.5v0.6h-7.5V38z M88.3,75.3c-0.8,0-1.5-0.7-1.5-1.5c0-0.8,0.7-1.5,1.5-1.5
		c0.8,0,1.5,0.7,1.5,1.5C89.8,74.6,89.1,75.3,88.3,75.3z M96.8,70.2c-6.8,0-14.3,0.1-17.7,0V40.7l17.7,0V70.2z M51.2,51.4h-7.9v3.3
		h19.3v1.4H43.3v2.9h28.8v-7.6H53.3H51.2z"/>
</g>
</svg>
