<?xml version="1.0" encoding="utf-8"?>
<!-- Generator: Adobe Illustrator 21.1.0, SVG Export Plug-In . SVG Version: 6.00 Build 0)  -->
<svg version="1.1" id="Layer_1" xmlns="http://www.w3.org/2000/svg" xmlns:xlink="http://www.w3.org/1999/xlink" x="0px" y="0px"
	 viewBox="0 0 61 100" style="enable-background:new 0 0 61 100;" xml:space="preserve">
<style type="text/css">
	.st0{fill:#18CFAB;}
</style>
<g>
	<path class="st0" d="M18.4,96.8c0,1.2,1,2.2,2.1,2.2h31.7c1.2,0,2.1-1,2.1-2.2v-5h-36V96.8z M17.7,37l0-15.8c0-1.8,0.7-3.5,1.9-4.8
		c1.4-1.4,3.4-2.2,5.5-2.2c1.6,0,3.2,0.5,4.4,1.4c1.5,1.1,2.4,2.8,2.6,4.7c0,0,0.8,8.3,1.6,15.7c5.3-3.2,8.9-9,8.9-15.7
		c0-10.1-8.1-18.2-18-18.2c-9.9,0-18,8.1-18,18.2C6.7,27.7,11.2,34.2,17.7,37z M60,57.7c0-2.1-1.3-4-3.3-4.6c-5.9-2-18-5.9-19.8-6.2
		c-0.6-0.1-1.1-0.2-1.7-0.2c-1.4,0-2.7,0.4-3.5,1.1h0c0,0,0,0,0,0c0-0.1-2.8-27.1-2.8-27.2c-0.2-2.2-2-3.2-3.8-3.2
		c-2.1,0-4.2,1.3-4.2,3.8l0,43.8c0,0.5-0.4,1-0.9,1c0,0,0,0,0,0c0,0-0.1,0-0.1,0c0,0,0,0,0,0c-1.5,0-4.7-0.1-8-4.8
		c-0.4-0.6-0.8-1.2-1.2-1.7c-1.1-1.6-2.6-2.3-4-2.3c-2.5,0-4.7,2.2-4.1,5.4c0.8,4.7,5.9,15.6,15.9,25.9h36l3.6-6.2
		c1.3-2.2,2-4.7,2-7.3L60,57.7z"/>
</g>
</svg>
