<?xml version="1.0" encoding="utf-8"?>
<!-- Generator: Adobe Illustrator 21.1.0, SVG Export Plug-In . SVG Version: 6.00 Build 0)  -->
<svg version="1.1" id="Layer_1" xmlns="http://www.w3.org/2000/svg" xmlns:xlink="http://www.w3.org/1999/xlink" x="0px" y="0px"
	 viewBox="0 0 62 99" style="enable-background:new 0 0 62 99;" xml:space="preserve">
<style type="text/css">
	.st0{fill:#18CFAB;}
</style>
<g>
	<path class="st0" d="M49,77c0,1.7-1.3,3-3,3H16c-1.7,0-3-1.3-3-3c0-1.7,1.3-3,3-3h30C47.7,74,49,75.3,49,77z M46,83H16
		c-1.7,0-3,1.3-3,3s1.3,3,3,3h30c1.7,0,3-1.3,3-3S47.7,83,46,83z M25,98h12c3.3,0,6-2.7,6-6H19C19,95.3,21.7,98,25,98z M61,32
		c0,16.3-9.8,18.2-11.7,36c0,1.7-1.3,3-3,3H15.7c-1.7,0-3-1.3-3-3h0C10.8,50.2,1,48.3,1,32C1,15.4,14.4,2,31,2C47.6,2,61,15.4,61,32
		z M43.1,23c-34.9,8.2-18,30-18,30c0-12,8.8-14.8,9-14.4c-6.2,6-9,26.4-9,26.4h6c0,0,0-6,0-12C48.2,53.9,43.1,25.1,43.1,23z"/>
</g>
</svg>
