<?xml version="1.0" encoding="utf-8"?>
<!-- Generator: Adobe Illustrator 21.1.0, SVG Export Plug-In . SVG Version: 6.00 Build 0)  -->
<svg version="1.1" id="Layer_1" xmlns="http://www.w3.org/2000/svg" xmlns:xlink="http://www.w3.org/1999/xlink" x="0px" y="0px"
	 viewBox="0 0 17 17" style="enable-background:new 0 0 17 17;" xml:space="preserve">
<style type="text/css">
	.st0{fill:#FFFFFF;}
</style>
<g>
	<path class="st0" d="M14.9,3.7l-1.8-1.8c-0.8-0.8-2.1-0.8-2.9,0l-2,2C7.4,4.7,7.3,6,8.2,6.8l1.2-1.1c-0.1-0.4,0-0.8,0.3-1.1L11,3.3
		c0.4-0.4,1.1-0.4,1.5,0l1.1,1.1c0.4,0.4,0.4,1.1,0,1.5l-1.3,1.3c-0.3,0.3-0.7,0.4-1.1,0.3L10,8.7c0.8,0.8,2.1,0.8,2.9,0l2-2
		C15.7,5.9,15.7,4.5,14.9,3.7z M7.5,11.1c0.1,0.4-0.1,0.8-0.3,1.1L6,13.4c-0.4,0.4-1.1,0.4-1.5,0l-1.1-1.1c-0.4-0.4-0.4-1.1,0-1.5
		l1.2-1.2c0.3-0.3,0.7-0.4,1.1-0.3l1.2-1.2c-0.8-0.8-2.2-0.8-3,0l-2,1.9c-0.8,0.8-0.8,2.2,0,3l1.9,1.9c0.8,0.8,2.1,0.8,3,0L8.7,13
		c0.8-0.8,0.8-2.2,0-3L7.5,11.1z M6.3,10.6c0.3,0.3,0.7,0.3,1,0l3.3-3.4c0.3-0.3,0.3-0.7,0-1s-0.7-0.3-1,0L6.3,9.5
		C6,9.8,6,10.3,6.3,10.6z"/>
</g>
</svg>
