<?xml version="1.0" encoding="utf-8"?>
<!-- Generator: Adobe Illustrator 21.1.0, SVG Export Plug-In . SVG Version: 6.00 Build 0)  -->
<svg version="1.1" id="Layer_1" xmlns="http://www.w3.org/2000/svg" xmlns:xlink="http://www.w3.org/1999/xlink" x="0px" y="0px"
	 viewBox="0 0 18 19" style="enable-background:new 0 0 18 19;" xml:space="preserve">
<style type="text/css">
	.st0{fill:#FFFFFF;}
</style>
<g>
	<path class="st0" d="M16.5,8H11V2.5C11,2.2,10.8,2,10.5,2h-3C7.2,2,7,2.2,7,2.5V8H1.5C1.2,8,1,8.2,1,8.5v3C1,11.8,1.2,12,1.5,12H7
		v5.5C7,17.8,7.2,18,7.5,18h3c0.3,0,0.5-0.2,0.5-0.5V12h5.5c0.3,0,0.5-0.2,0.5-0.5v-3C17,8.2,16.8,8,16.5,8z"/>
</g>
</svg>
