<?xml version="1.0" encoding="utf-8"?>
<!-- Generator: Adobe Illustrator 21.1.0, SVG Export Plug-In . SVG Version: 6.00 Build 0)  -->
<svg version="1.1" id="Layer_1" xmlns="http://www.w3.org/2000/svg" xmlns:xlink="http://www.w3.org/1999/xlink" x="0px" y="0px"
	 viewBox="0 0 47 33" style="enable-background:new 0 0 47 33;" xml:space="preserve">
<style type="text/css">
	.st0{fill:#18CFAB;}
</style>
<g>
	<path class="st0" d="M11.7,12.9c5.3,0,9.6,4.3,9.6,9.5c0,5.3-4.3,9.5-9.6,9.5C6.3,32,2,27.7,2,22.4l0-1.4C2,10.5,10.6,2,21.2,2v5.5
		c-3.7,0-7.1,1.4-9.7,4c-0.5,0.5-1,1-1.4,1.6C10.6,12.9,11.1,12.9,11.7,12.9z M36.4,12.9c5.3,0,9.6,4.3,9.6,9.5
		c0,5.3-4.3,9.5-9.6,9.5s-9.6-4.3-9.6-9.5l0-1.4C26.7,10.5,35.3,2,46,2v5.5c-3.7,0-7.1,1.4-9.7,4c-0.5,0.5-1,1-1.4,1.6
		C35.4,12.9,35.9,12.9,36.4,12.9z"/>
</g>
</svg>
