<?xml version="1.0" encoding="utf-8"?>
<!-- Generator: Adobe Illustrator 21.1.0, SVG Export Plug-In . SVG Version: 6.00 Build 0)  -->
<svg version="1.1" id="Layer_1" xmlns="http://www.w3.org/2000/svg" xmlns:xlink="http://www.w3.org/1999/xlink" x="0px" y="0px"
	 viewBox="0 0 46 44" style="enable-background:new 0 0 46 44;" xml:space="preserve">
<style type="text/css">
	.st0{fill:#FFFFFF;}
</style>
<path class="st0" d="M46,20.4l-1-6l-1,6l0,0v4.2L43.2,24v-3.5l0,0l-1-6l-1,6l0,0v2l-4.1-3.4v-5.3l0,0l-1-6l-1,6l0,0v3.7l-4.5-3.7
	V6.9l0,0l-0.8-6l-1,6l0,0v5.3L28,11.5V6.9l0,0l-0.9-6l-1,6l0,0V10L23,7.5l-3.5,2.8V7l0,0l-0.9-6l-1,6l0,0v4.9l-0.9,0.7V6.9l0,0
	l-0.9-6l-1,6l0,0V14l-4.4,3.6v-4l0,0l-1-6l-1,6l0,0v5.5l-3.9,3.2v-2l0,0l-1-6l-1,6l0,0v3.5l-0.9,0.7v-4.2l0,0l-0.9-6l-1,6l0,0V26
	v7.8V44h7.4v-4.2c0-1.1,0.9-2,2-2s2,0.9,2,2l0,0V44h7.3v-8.1l0,0c0-2.1,1.7-3.9,3.9-3.9s3.9,1.7,3.9,3.9l0,0v8h7.6v-4.2
	c0-1.1,0.9-2,2-2s2,0.9,2,2v4.2H46V33.7V26V20.4L46,20.4z M11.1,34.6H7.9v-3.4c0-0.9,0.7-1.6,1.6-1.6s1.6,0.7,1.6,1.6l0,0
	C11.1,31.3,11.1,34.6,11.1,34.6z M11.1,27.2H7.9v-3.4c0-0.9,0.7-1.6,1.6-1.6s1.6,0.7,1.6,1.6l0,0C11.1,23.9,11.1,27.2,11.1,27.2z
	 M17.3,22.5h-2.8v-3c0-0.8,0.6-1.7,1.4-2.4c0.8,0.6,1.4,1.6,1.4,2.4C17.3,19.6,17.3,22.5,17.3,22.5z M24.8,28.5h-4.1v-4.2
	c0-1.1,0.9-2,2-2s2,0.9,2,2v4.2H24.8z M24.8,18.9h-4.1v-4.2c0-1.1,0.8-2.5,2-3.4c1.2,0.9,2,2.3,2,3.4v4.2H24.8z M31.3,22.5h-2.8v-3
	c0-0.8,0.6-1.7,1.4-2.4c0.8,0.6,1.4,1.6,1.4,2.4V22.5L31.3,22.5z M37.9,34.6h-3.2v-3.4c0-0.9,0.7-1.6,1.6-1.6s1.6,0.7,1.6,1.6
	C37.9,31.3,37.9,34.6,37.9,34.6z M37.9,27.2h-3.2v-3.4c0-0.9,0.7-1.6,1.6-1.6s1.6,0.7,1.6,1.6C37.9,23.9,37.9,27.2,37.9,27.2z"/>
</svg>
